<svg xmlns="http://www.w3.org/2000/svg" xmlns:xlink="http://www.w3.org/1999/xlink" aria-hidden="true" role="img" class="iconify iconify--logos" width="31.88" height="32" preserveAspectRatio="xMidYMid meet" viewBox="0 0 256 257"><defs><linearGradient id="IconifyId1813088fe1fbc012766" x1="84.728%" x2="50%" y1="100%" y2="50%"><stop offset="0%" stop-color="#FBBF45"/><stop offset="100%" stop-color="#FFC845"/></linearGradient><linearGradient id="IconifyId1813088fe1fbc012767" x1="25.837%" x2="74.163%" y1="100%" y2="0%"><stop offset="0%" stop-color="#FFAA3D"/><stop offset="100%" stop-color="#FFC845"/></linearGradient><linearGradient id="IconifyId1813088fe1fbc012768" x1="50%" x2="50%" y1="0%" y2="99.631%"><stop offset="0%" stop-color="#FFD24B"/><stop offset="100%" stop-color="#FFAF40"/></linearGradient></defs><path fill="url(#IconifyId1813088fe1fbc012766)" d="m128.191 0l.946 106.823L22.792 45.465z"/><path fill="#FFC039" d="m128.191 0L22.792 45.465l105.399-13.242z"/><path fill="url(#IconifyId1813088fe1fbc012767)" d="m128.191 127.995V256.99l106.336-151.527z"/><path fill="#FFBB38" d="M128.191 127.995l106.336-22.532L22.792 45.465z"/><path fill="url(#IconifyId1813088fe1fbc012768)" d="m21.858 105.463l106.333 22.532L22.792 45.465z"/><path fill="#FFD24B" d="m22.792 45.465l105.399 82.53L128.191 0z"/><path fill="#FFBB38" d="m21.858 105.463l106.333 151.526V127.994z"/><path fill="#FFC039" d="m21.858 105.463l106.333 22.531l-.946 129.996z"/></svg>